<svg width="79" height="79" viewBox="0 0 79 79" fill="none" xmlns="http://www.w3.org/2000/svg">
         <rect x="0.608948" y="39.5" width="55" height="55" rx="8" transform="rotate(-45 0.608948 39.5)" fill="#FD6D00" />
         <path
            d="M56.0795 39.8182C56.0795 43.7363 55.3456 47.0921 53.8778 49.8857C52.4219 52.6674 50.4332 54.7981 47.9119 56.2777C45.4025 57.7573 42.5556 58.4972 39.3714 58.4972C36.1873 58.4972 33.3345 57.7573 30.8132 56.2777C28.3037 54.7862 26.3151 52.6496 24.8473 49.8679C23.3913 47.0743 22.6634 43.7244 22.6634 39.8182C22.6634 35.9001 23.3913 32.5502 24.8473 29.7685C26.3151 26.9749 28.3037 24.8383 30.8132 23.3587C33.3345 21.879 36.1873 21.1392 39.3714 21.1392C42.5556 21.1392 45.4025 21.879 47.9119 23.3587C50.4332 24.8383 52.4219 26.9749 53.8778 29.7685C55.3456 32.5502 56.0795 35.9001 56.0795 39.8182ZM49.4567 39.8182C49.4567 37.0601 49.0246 34.7341 48.1605 32.8402C47.3082 30.9344 46.1245 29.4962 44.6094 28.5256C43.0942 27.5431 41.3482 27.0518 39.3714 27.0518C37.3946 27.0518 35.6487 27.5431 34.1335 28.5256C32.6184 29.4962 31.4287 30.9344 30.5646 32.8402C29.7124 34.7341 29.2862 37.0601 29.2862 39.8182C29.2862 42.5762 29.7124 44.9081 30.5646 46.8139C31.4287 48.7079 32.6184 50.1461 34.1335 51.1286C35.6487 52.0992 37.3946 52.5845 39.3714 52.5845C41.3482 52.5845 43.0942 52.0992 44.6094 51.1286C46.1245 50.1461 47.3082 48.7079 48.1605 46.8139C49.0246 44.9081 49.4567 42.5762 49.4567 39.8182Z"
            fill="white"
         />
</svg>